{"title":"The.Fantastic.Mr.Fox.DVDSCR-DONEDEAL","uid":5271183,"size":721759388,"categoryP":"video","categoryS":"movies","magnet":"?xt=urn:btih:a454f0feffee1ff32512946f25528629f56f1ef7&amp;dn=The.Fantastic.Mr.Fox.DVDSCR-DONEDEAL&amp;tr=udp%3A%2F%2Ftracker.openbittorrent.com%3A80&amp;tr=udp%3A%2F%2Fopen.demonii.com%3A1337&amp;tr=udp%3A%2F%2Ftracker.coppersurfer.tk%3A6969&amp;tr=udp%3A%2F%2Fexodus.desync.com%3A6969","seeders":1,"leechers":0,"uploader":".BONE.","files":3,"time":1263193406,"description":"The Fantastic Mr. Fox &lt;a href=&quot;\nhttp://www.imdb.com/title/tt0432283/&quot; rel=&quot;nofollow&quot; target=&quot;_NEW&quot;&gt;\nhttp://www.imdb.com/title/tt0432283/&lt;/a&gt;\nRelease Date: 25 November 2009 (USA)\nGenre: Animation | Adventure | Comedy | Family\nRuntime: 87 min\nCountry: USA | UK\nLanguage: English | French\nColor: Color\nAspect Ratio: 1.85 : 1\n\n\n\n\nGeneral\nComplete name                    : The.Fantastic.Mr.Fox.DVDSCR-DONEDEAL.avi\nFormat                           : AVI\nFormat/Info                      : Audio Video Interleave\nFile size                        : 677 MiB\nDuration                         : 1h 27mn\nOverall bit rate                 : 1 084 Kbps\nWriting application              : transcode-1.0.2\n\nVideo\nID                               : 0\nFormat                           : MPEG-4 Visual\nFormat profile                   : Simple@L1\nFormat settings, BVOP            : No\nFormat settings, QPel            : No\nFormat settings, GMC             : No warppoints\nFormat settings, Matrix          : Default (H.263)\nCodec ID                         : DX50\nCodec ID/Hint                    : DivX 5\nDuration                         : 1h 27mn\nBit rate                         : 944 Kbps\nWidth                            : 848 pixels\nHeight                           : 480 pixels\nDisplay aspect ratio             : 16:9\nFrame rate                       : 23.976 fps\nResolution                       : 24 bits\nColorimetry                      : 4:2:0\nScan type                        : Progressive\nBits/(Pixel*Frame)               : 0.097\nStream size                      : 589 MiB (87%)\nWriting library                  : Lavc51.40.4\n\nAudio\nID                               : 1\nFormat                           : MPEG Audio\nFormat version                   : Version 1\nFormat profile                   : Layer 3\nFormat_Settings_Mode             : Joint stereo / MS Stereo\nCodec ID                         : 55\nCodec ID/Hint                    : MP3\nDuration                         : 1h 27mn\nBit rate mode                    : Constant\nBit rate                         : 128 Kbps\nChannel(s)                       : 2 channels\nSampling rate                    : 48.0 KHz\nResolution                       : 16 bits\nStream size                      : 79.9 MiB (12%)\nAlignment                        : Aligned on interleaves\nInterleave, duration             : 24 ms (0.58 video frame)\nInterleave, preload duration     : 48 ms\nWriting library                  : LAME3.97 (beta)","torrent":{"xt":"urn:btih:a454f0feffee1ff32512946f25528629f56f1ef7","amp;dn":"The.Fantastic.Mr.Fox.DVDSCR-DONEDEAL","amp;tr":["udp%3A%2F%2Ftracker.openbittorrent.com%3A80","udp%3A%2F%2Fopen.demonii.com%3A1337","udp%3A%2F%2Ftracker.coppersurfer.tk%3A6969","udp%3A%2F%2Fexodus.desync.com%3A6969"],"infoHash":"a454f0feffee1ff32512946f25528629f56f1ef7","infoHashBuffer":{"type":"Buffer","data":[164,84,240,254,255,238,31,243,37,18,148,111,37,82,134,41,245,111,30,247]},"announce":[],"urlList":[]}}